PathFileType	4	(X/Y/Z)	C:\ABL_Data\ExoAging\Piloting\Dec 6 2019\Generated_files\static_1.trc
DataRate	CameraRate	NumFrames	NumMarkers	Units	OrigDataRate	OrigDataStartFrame	OrigNumFrames
100.00	100.00	       8	20	mm	100.00	405	       539
Frame#	Time	R.Acromium			L.Acromium			Sternum			R.ASIS			R.PSIS			S2			L.PSIS			L.ASIS			R.Knee			R.Ankle			L.Knee			L.Ankle			R.MKnee			R.MAnkle			L.MKnee			L.MAnkle			C7			T12			Clav			R.Back			
		X1	Y1	Z1	X2	Y2	Z2	X3	Y3	Z3	X4	Y4	Z4	X5	Y5	Z5	X6	Y6	Z6	X7	Y7	Z7	X8	Y8	Z8	X9	Y9	Z9	X10	Y10	Z10	X11	Y11	Z11	X12	Y12	Z12	X13	Y13	Z13	X14	Y14	Z14	X15	Y15	Z15	X16	Y16	Z16	X17	Y17	Z17	X18	Y18	Z18	X19	Y19	Z19	X20	Y20	Z20	

405	4.040	774.91528	364.90805	1490.92834	788.58020	768.87628	1480.50208				851.36652	424.44174	1006.54156	667.70160	506.74167	1043.60999	651.36646	559.38434	1019.87537	673.25635	609.51160	1047.33459	860.67688	684.41431	1017.59058	757.20044	362.07355	512.90021	693.22986	359.19403	87.61563	755.81494	741.37762	509.86661	701.29852	752.22577	79.73064	780.83191	475.48230	489.71249	739.07251	439.48132	92.79974	765.89319	628.76129	487.25204	716.91187	661.68549	93.88677	697.96008	553.55121	1556.50391	670.65814	560.74463	1186.42053	855.56073	557.52374	1455.06165	627.03900	440.20587	1396.28101	
406	4.050	774.99011	364.88605	1490.90247	788.69666	768.88074	1480.50574				851.41498	424.40015	1006.51703	667.79718	506.76288	1043.59180	651.46533	559.36359	1019.86493	673.29541	609.52020	1047.33118	860.75580	684.40430	1017.50354	757.27374	362.00916	512.92065	693.25824	359.21658	87.58374	755.93579	741.36523	509.82892	701.33630	752.21820	79.73785	780.89630	475.47647	489.70706	739.13208	439.48340	92.77940	765.94159	628.79913	487.23407	716.95203	661.67480	93.89213	698.06714	553.62073	1556.48645	670.71814	560.75995	1186.39661	855.67340	557.43750	1455.01392	627.12457	440.17474	1396.24890	
407	4.060	775.07349	364.98184	1490.89429	788.79059	768.83984	1480.53809				851.50092	424.39294	1006.52917	667.85760	506.76657	1043.59399	651.51440	559.33636	1019.86621	673.32751	609.46594	1047.31128	860.71521	684.48444	1017.34802	757.29926	361.99603	512.89520	693.25543	359.23508	87.60447	755.97498	741.37085	509.81921	701.30573	752.24133	79.70557	780.92719	475.48129	489.72104	739.13104	439.46262	92.76981	765.91937	628.75922	487.22754	716.94659	661.66870	93.89209	698.16205	553.59058	1556.43835	670.78906	560.74323	1186.39685	855.74847	557.45380	1454.95044	627.20874	440.15610	1396.22986	
408	4.070	775.11395	364.92145	1490.85962	788.84436	768.89001	1480.44312				851.57715	424.37857	1006.56732	667.91400	506.76501	1043.55725	651.57111	559.35217	1019.81146	673.37347	609.50269	1047.32715	860.88434	684.38922	1017.48627	757.34064	361.99786	512.90637	693.26837	359.16006	87.63694	755.96490	741.29144	509.81262	701.28564	752.22736	79.70052	780.92645	475.46805	489.73102	739.10138	439.46143	92.77210	765.82904	628.55334	487.29642	716.92737	661.67212	93.89476	698.23895	553.57727	1556.43311	670.88196	560.70624	1186.38013	855.83331	557.41925	1454.93933	627.28253	440.15314	1396.21594	
409	4.080	775.19727	364.87167	1490.86694	788.94684	768.89917	1480.47217				851.62445	424.39069	1006.58301	667.98077	506.75818	1043.55591	651.65070	559.32959	1019.85333	673.64484	609.55597	1047.22473	860.93610	684.37665	1017.43274	757.32208	362.04300	512.90057	693.25464	359.18524	87.61636	756.00275	741.27649	509.82706	701.28137	752.23901	79.72575	780.92871	475.46866	489.73395	739.08087	439.48163	92.77486	765.95959	628.78015	487.21799	716.89221	661.66742	93.90504	698.31799	553.56305	1556.41223	670.96143	560.68909	1186.35498	855.90356	557.43115	1454.92651	627.37793	440.12802	1396.21838	
410	4.090	775.25940	364.96817	1490.89233	789.05890	768.86981	1480.55676				851.65509	424.36206	1006.48761	668.06415	506.79498	1043.60266	651.67731	559.30792	1019.93256	673.70343	609.58014	1047.25330	861.04456	684.35663	1017.51910	757.36816	361.99625	512.87439	693.27081	359.19864	87.60301	756.04724	741.32739	509.81854	701.28601	752.23584	79.74339	780.93115	475.46466	489.71048	739.06970	439.46280	92.78634	766.01050	628.77148	487.26276	716.90948	661.65778	93.94371	698.39471	553.53784	1556.41821	671.02838	560.73236	1186.39270	855.98547	557.30322	1454.92322	627.44635	440.13132	1396.24536	
411	4.100	775.30988	364.92960	1490.90112	789.09180	768.85406	1480.50757				851.73535	424.34406	1006.50842	668.10797	506.75665	1043.60498	651.70386	559.28534	1019.96661	673.77844	609.47815	1047.29297	861.10675	684.30017	1017.46570	757.36969	361.99200	512.87708	693.26569	359.22189	87.61462	756.03650	741.30157	509.86768	701.28485	752.21692	79.75330	780.94928	475.46085	489.71158	739.07147	439.47086	92.78925	766.04358	628.77960	487.25430	716.96930	661.63873	93.94165	698.46161	553.51880	1556.42871	671.09882	560.65912	1186.40625	856.04968	557.35522	1454.97034	627.53040	440.13919	1396.22510	
412	4.110	775.42432	364.89297	1490.86731	789.22736	768.82080	1480.52258				851.84070	424.33749	1006.53510	668.17487	506.76141	1043.62683	651.76904	559.29602	1019.98004	673.84967	609.50372	1047.33228	861.16254	684.31842	1017.45007	757.45044	361.96371	512.89703	693.24701	359.22540	87.62197	756.12567	741.20917	509.83966	701.33539	752.21210	79.77616	780.98615	475.46310	489.71823	739.10449	439.44891	92.76734	766.08185	628.79553	487.23413	716.98828	661.64709	93.93672	698.55927	553.49622	1556.44556	671.21216	560.62537	1186.40051	856.12042	557.28320	1454.96289	627.61749	440.10748	1396.24329	
